<svg width="204" height="41" viewBox="0 0 204 41" fill="none" xmlns="http://www.w3.org/2000/svg">
<mask id="mask0_648_1447" style="mask-type:luminance" maskUnits="userSpaceOnUse" x="0" y="0" width="40" height="41">
<path d="M0 0.5H40V40.5H0V0.5Z" fill="white"/>
</mask>
<g mask="url(#mask0_648_1447)">
<path d="M39.3811 13.8785C37.2131 5.5044 30.6547 0.505859 21.8367 0.505859H0.00195312L0.432509 1.54024C2.28251 5.98954 6.47001 8.86687 11.0992 8.86833H17.045L17.0936 8.86687C17.3186 8.84939 18.1547 8.79694 19.4061 8.79694C20.6117 8.79694 21.8381 8.84648 23.0506 8.94409L23.1686 8.95283C27.8075 9.33599 34.1631 10.6078 38.0908 14.486L38.1422 14.5356C38.1617 14.556 38.1825 14.5764 38.202 14.5982L40.0714 16.5504L39.3811 13.8785ZM39.9797 23.5303L39.9742 23.6105C38.795 34.0446 31.77 40.5248 21.6422 40.5248H7.71168V20.771H8.41723C12.495 20.771 15.8131 24.2515 15.8131 28.5289V32.0268H21.9825C25.0214 32.0268 27.5797 30.9808 29.3825 28.9995C31.2172 26.9846 32.1881 24.0708 32.1881 20.5758V20.4549C32.1881 17.748 31.62 15.4155 30.5006 13.5172L29.4561 11.7471L31.3311 12.4289C33.6589 13.2768 35.5464 14.4045 36.9422 15.7841C38.9811 17.799 40.0033 20.4039 39.9797 23.5303Z" fill="white"/>
</g>
<path d="M51.7646 26.5H49.1582L49.1748 24.707H51.7646C52.4674 24.707 53.0568 24.5521 53.5327 24.2422C54.0086 23.9268 54.3683 23.4757 54.6118 22.8892C54.8553 22.297 54.9771 21.5887 54.9771 20.7642V20.1416C54.9771 19.5052 54.9079 18.9435 54.7695 18.4565C54.6312 17.9696 54.4264 17.5601 54.1553 17.228C53.8896 16.896 53.5604 16.6442 53.1675 16.4727C52.7746 16.3011 52.3236 16.2153 51.8145 16.2153H49.1084V14.4141H51.8145C52.6224 14.4141 53.3584 14.5496 54.0225 14.8208C54.6921 15.092 55.2703 15.4821 55.7573 15.9912C56.2498 16.4948 56.6261 17.098 56.8862 17.8008C57.1519 18.5036 57.2847 19.2894 57.2847 20.1582V20.7642C57.2847 21.6274 57.1519 22.4132 56.8862 23.1216C56.6261 23.8244 56.2498 24.4276 55.7573 24.9312C55.2703 25.4347 54.6893 25.8221 54.0142 26.0933C53.339 26.3644 52.5892 26.5 51.7646 26.5ZM50.4365 14.4141V26.5H48.1538V14.4141H50.4365ZM69.0137 20.1499V20.7725C69.0137 21.6855 68.8919 22.5073 68.6484 23.2378C68.4049 23.9627 68.0591 24.5798 67.6108 25.0889C67.1626 25.598 66.6286 25.9881 66.0088 26.2593C65.389 26.5304 64.7 26.666 63.9419 26.666C63.1948 26.666 62.5086 26.5304 61.8833 26.2593C61.2635 25.9881 60.7267 25.598 60.2729 25.0889C59.8192 24.5798 59.4678 23.9627 59.2188 23.2378C58.9697 22.5073 58.8452 21.6855 58.8452 20.7725V20.1499C58.8452 19.2313 58.9697 18.4095 59.2188 17.6846C59.4678 16.9596 59.8164 16.3426 60.2646 15.8335C60.7129 15.3188 61.2469 14.9259 61.8667 14.6548C62.492 14.3836 63.1782 14.248 63.9253 14.248C64.6834 14.248 65.3724 14.3836 65.9922 14.6548C66.612 14.9259 67.146 15.3188 67.5942 15.8335C68.048 16.3426 68.3966 16.9596 68.6401 17.6846C68.8892 18.4095 69.0137 19.2313 69.0137 20.1499ZM66.7061 20.7725V20.1333C66.7061 19.4748 66.6452 18.8965 66.5234 18.3984C66.4017 17.8949 66.2218 17.4715 65.9839 17.1284C65.7459 16.7853 65.4526 16.528 65.104 16.3564C64.7554 16.1794 64.3625 16.0908 63.9253 16.0908C63.4826 16.0908 63.0897 16.1794 62.7466 16.3564C62.409 16.528 62.1213 16.7853 61.8833 17.1284C61.6453 17.4715 61.4627 17.8949 61.3354 18.3984C61.2137 18.8965 61.1528 19.4748 61.1528 20.1333V20.7725C61.1528 21.4255 61.2137 22.0037 61.3354 22.5073C61.4627 23.0109 61.6453 23.437 61.8833 23.7856C62.1268 24.1287 62.4201 24.3888 62.7632 24.5659C63.1063 24.743 63.4992 24.8315 63.9419 24.8315C64.3846 24.8315 64.7775 24.743 65.1206 24.5659C65.4637 24.3888 65.7515 24.1287 65.9839 23.7856C66.2218 23.437 66.4017 23.0109 66.5234 22.5073C66.6452 22.0037 66.7061 21.4255 66.7061 20.7725ZM70.9478 14.4141H75.3389C76.2575 14.4141 77.0461 14.5524 77.7046 14.8291C78.3631 15.1058 78.8695 15.5153 79.2236 16.0576C79.5778 16.5999 79.7549 17.2668 79.7549 18.0581C79.7549 18.6834 79.6442 19.2257 79.4229 19.6851C79.2015 20.1444 78.8888 20.529 78.4849 20.8389C78.0864 21.1488 77.616 21.3923 77.0737 21.5693L76.3599 21.9346H72.4834L72.4668 20.1333H75.3638C75.8341 20.1333 76.2243 20.0503 76.5342 19.8843C76.8441 19.7183 77.0765 19.4886 77.2314 19.1953C77.3919 18.902 77.4722 18.5672 77.4722 18.1909C77.4722 17.7869 77.3947 17.4383 77.2397 17.145C77.0848 16.8462 76.8496 16.6165 76.5342 16.4561C76.2188 16.2956 75.8203 16.2153 75.3389 16.2153H73.2305V26.5H70.9478V14.4141ZM77.771 26.5L74.9736 21.0879L77.3892 21.0796L80.2197 26.3838V26.5H77.771ZM84.1875 14.4141V26.5H81.9048V14.4141H84.1875ZM91.6084 16.2485L88.1636 26.5H85.748L90.2637 14.4141H91.8076L91.6084 16.2485ZM94.4888 26.5L91.0273 16.2485L90.8198 14.4141H92.3721L96.9126 26.5H94.4888ZM94.3311 22.0093V23.8105H87.8481V22.0093H94.3311ZM107.87 14.4141V26.5H105.579L100.44 18.1162V26.5H98.1577V14.4141H100.44L105.595 22.8062V14.4141H107.87ZM115.423 14.4141H117.399L120.703 23.5117L123.998 14.4141H125.982L121.491 26.5H119.906L115.423 14.4141ZM114.427 14.4141H116.361L116.71 22.7729V26.5H114.427V14.4141ZM125.036 14.4141H126.978V26.5H124.695V22.7729L125.036 14.4141ZM134.258 16.2485L130.813 26.5H128.397L132.913 14.4141H134.457L134.258 16.2485ZM137.138 26.5L133.677 16.2485L133.469 14.4141H135.021L139.562 26.5H137.138ZM136.98 22.0093V23.8105H130.498V22.0093H136.98ZM140.807 14.4141H145.198C146.117 14.4141 146.905 14.5524 147.564 14.8291C148.222 15.1058 148.729 15.5153 149.083 16.0576C149.437 16.5999 149.614 17.2668 149.614 18.0581C149.614 18.6834 149.504 19.2257 149.282 19.6851C149.061 20.1444 148.748 20.529 148.344 20.8389C147.946 21.1488 147.475 21.3923 146.933 21.5693L146.219 21.9346H142.343L142.326 20.1333H145.223C145.694 20.1333 146.084 20.0503 146.394 19.8843C146.703 19.7183 146.936 19.4886 147.091 19.1953C147.251 18.902 147.332 18.5672 147.332 18.1909C147.332 17.7869 147.254 17.4383 147.099 17.145C146.944 16.8462 146.709 16.6165 146.394 16.4561C146.078 16.2956 145.68 16.2153 145.198 16.2153H143.09V26.5H140.807V14.4141ZM147.63 26.5L144.833 21.0879L147.249 21.0796L150.079 26.3838V26.5H147.63ZM159.625 24.707V26.5H153.2V24.707H159.625ZM153.897 14.4141V26.5H151.615V14.4141H153.897ZM158.787 19.4028V21.1543H153.2V19.4028H158.787ZM159.6 14.4141V16.2153H153.2V14.4141H159.6ZM168.283 22.5239H170.565C170.505 23.3319 170.28 24.0485 169.893 24.6738C169.506 25.2936 168.966 25.7806 168.274 26.1348C167.583 26.4889 166.744 26.666 165.759 26.666C165.001 26.666 164.318 26.5332 163.709 26.2676C163.106 25.9964 162.588 25.6118 162.157 25.1138C161.731 24.6102 161.404 24.007 161.177 23.3042C160.95 22.5959 160.837 21.8018 160.837 20.9219V20.0005C160.837 19.1206 160.953 18.3265 161.186 17.6182C161.418 16.9098 161.75 16.3066 162.182 15.8086C162.619 15.305 163.142 14.9176 163.75 14.6465C164.365 14.3753 165.051 14.2397 165.809 14.2397C166.794 14.2397 167.627 14.4224 168.308 14.7876C168.988 15.1473 169.517 15.6426 169.893 16.2734C170.269 16.9043 170.496 17.6292 170.574 18.4482H168.291C168.247 17.9391 168.136 17.5075 167.959 17.1533C167.787 16.7992 167.527 16.5308 167.179 16.3481C166.836 16.16 166.379 16.0659 165.809 16.0659C165.366 16.0659 164.976 16.1489 164.639 16.3149C164.307 16.481 164.03 16.73 163.809 17.062C163.587 17.3885 163.421 17.798 163.311 18.2905C163.2 18.7775 163.145 19.342 163.145 19.9839V20.9219C163.145 21.5361 163.194 22.0868 163.294 22.5737C163.394 23.0607 163.549 23.473 163.759 23.8105C163.969 24.1481 164.24 24.4054 164.572 24.5825C164.904 24.7596 165.3 24.8481 165.759 24.8481C166.318 24.8481 166.772 24.7596 167.121 24.5825C167.475 24.4054 167.743 24.1453 167.926 23.8022C168.114 23.4591 168.233 23.033 168.283 22.5239ZM180.352 19.4028V21.1958H173.994V19.4028H180.352ZM174.616 14.4141V26.5H172.333V14.4141H174.616ZM182.045 14.4141V26.5H179.763V14.4141H182.045ZM189.325 16.2485L185.88 26.5H183.465L187.98 14.4141H189.524L189.325 16.2485ZM192.206 26.5L188.744 16.2485L188.537 14.4141H190.089L194.629 26.5H192.206ZM192.048 22.0093V23.8105H185.565V22.0093H192.048ZM203.544 24.707V26.5H197.468V24.707H203.544ZM198.157 14.4141V26.5H195.875V14.4141H198.157Z" fill="white"/>
</svg>
