<svg width="30" height="30" viewBox="0 0 30 30" fill="none" xmlns="http://www.w3.org/2000/svg">
<mask id="mask0_650_2591" style="mask-type:luminance" maskUnits="userSpaceOnUse" x="0" y="0" width="30" height="30">
<path d="M0 0H30V30H0V0Z" fill="white"/>
</mask>
<g mask="url(#mask0_650_2591)">
<path d="M29.5344 10.0334C27.9083 3.75281 22.9896 0.00390625 16.376 0.00390625H0L0.322917 0.779693C1.71042 4.11667 4.85104 6.27467 8.32292 6.27576H12.7823L12.8188 6.27467C12.9875 6.26156 13.6146 6.22222 14.5531 6.22222C15.4573 6.22222 16.3771 6.25937 17.2865 6.33258L17.375 6.33913C20.8542 6.6265 25.6208 7.58039 28.5667 10.489L28.6052 10.5262C28.6198 10.5415 28.6354 10.5568 28.65 10.5732L30.0521 12.0373L29.5344 10.0334ZM29.9833 17.2723L29.9792 17.3324C29.0948 25.158 23.826 30.0181 16.2302 30.0181H5.78229V15.2028H6.31146C9.36979 15.2028 11.8583 17.8131 11.8583 21.0212V23.6446H16.4854C18.7646 23.6446 20.6833 22.8601 22.0354 21.3741C23.4115 19.863 24.1396 17.6776 24.1396 15.0564V14.9657C24.1396 12.9355 23.7135 11.1862 22.874 9.76243L22.0906 8.43485L23.4969 8.94621C25.2427 9.58214 26.6583 10.4279 27.7052 11.4626C29.2344 12.9738 30.001 14.9274 29.9833 17.2723Z" fill="white"/>
</g>
</svg>
